<svg width="24" height="24" viewBox="0 0 24 24" fill="none" xmlns="http://www.w3.org/2000/svg">
<rect width="24" height="24" rx="2" fill="#7056E1"/>
<rect width="24" height="24" rx="2" fill="url(#paint0_linear)"/>
<path d="M14.8879 11.8287L14.7059 11.6352L14.5238 11.8287L13.9432 12.4455L13.7821 12.6167L13.9431 12.7881L15.845 14.8125H11H10.75V15.0625V15.9375V16.1875H11H15.845L13.9431 18.2119L13.7821 18.3833L13.9432 18.5545L14.5238 19.1713L14.7059 19.3648L14.8879 19.1713L18.1821 15.6713L18.3433 15.5L18.1821 15.3287L14.8879 11.8287Z" fill="#FEFEFD" stroke="white" stroke-width="0.5"/>
<path d="M9.11207 4.82866L9.29412 4.63523L9.47617 4.82866L10.0568 5.44553L10.2179 5.61672L10.0569 5.78805L8.15496 7.8125H13H13.25V8.0625V8.9375V9.1875H13H8.15496L10.0569 11.2119L10.2179 11.3833L10.0568 11.5545L9.47617 12.1713L9.29412 12.3648L9.11207 12.1713L5.81795 8.67134L5.65669 8.5L5.81795 8.32866L9.11207 4.82866Z" fill="#FEFEFD" stroke="white" stroke-width="0.5"/>
<defs>
<linearGradient id="paint0_linear" x1="24" y1="3.97364e-06" x2="-1.94981" y2="2.33549" gradientUnits="userSpaceOnUse">
<stop stop-color="#565FFF"/>
<stop offset="1" stop-color="#8C72F6"/>
</linearGradient>
</defs>
</svg>
